<svg xmlns="http://www.w3.org/2000/svg" width="163.839" height="163.839" fill-rule="evenodd" clip-rule="evenodd" image-rendering="optimizeQuality" shape-rendering="geometricPrecision" text-rendering="geometricPrecision" viewBox="0 0 4335 4335" id="tesla"><g><g><path fill="#211d21" d="M3343 1484c223-92 442-252 532-455-75-67-462-168-591-202-214-55-452-97-683-117-42 37-80 92-117 133-41 46-76 85-114 133-37 46-77 95-113 134-45 50-55 77-111 121l-432-523c-235 19-470 63-690 116l-597 204c74 198 393 423 539 452 34-74 19-87 74-144 104-106 381-114 526-110l582 2835c34-64 164-763 189-893l385-1895c16-57 21-49 82-48 134 1 332 20 439 93 77 53 57 108 98 164z"></path><path fill="#211d21" d="m236 585 139 308c175-34 430-148 812-220 618-117 1292-121 1912-3 402 77 638 186 821 223l153-306c-134-30-290-92-433-129-956-249-2013-257-2970-2-147 39-298 98-433 129z"></path></g></g></svg>
